<?xml version="1.0" standalone="no"?>
<!DOCTYPE svg PUBLIC "-//W3C//DTD SVG 20010904//EN"
 "http://www.w3.org/TR/2001/REC-SVG-20010904/DTD/svg10.dtd">
<svg version="1.0" xmlns="http://www.w3.org/2000/svg"
 width="512.000000pt" height="512.000000pt" viewBox="0 0 512.000000 512.000000"
 preserveAspectRatio="xMidYMid meet">
<metadata>
Created by potrace 1.11, written by Peter Selinger 2001-2013
</metadata>
<g transform="translate(0.000000,512.000000) scale(0.100000,-0.100000)"
fill="#000000" stroke="none">
<path d="M0 2560 l0 -2560 2560 0 2560 0 0 2560 0 2560 -2560 0 -2560 0 0
-2560z m1350 1987 c0 -13 491 -1936 499 -1952 l9 -20 8 20 c117 308 456 1175
486 1243 22 51 52 101 65 112 63 49 145 29 219 -53 81 -91 399 -585 680 -1059
54 -92 103 -166 108 -165 6 2 718 1687 738 1749 2 5 122 -247 267 -562 144
-315 261 -573 259 -574 -30 -19 -225 -102 -230 -97 -4 3 -66 134 -138 291 -72
157 -135 288 -139 293 -4 4 -164 -367 -356 -825 -191 -458 -351 -839 -355
-847 -5 -9 -26 19 -65 85 -124 211 -507 847 -605 1004 -209 334 -263 413 -272
397 -10 -19 -311 -793 -549 -1414 -95 -249 -174 -451 -175 -450 -2 1 -130 502
-285 1112 -155 611 -284 1113 -288 1117 -4 4 -132 -540 -286 -1210 -153 -669
-281 -1220 -285 -1224 -3 -4 -60 5 -127 20 -111 24 -122 29 -117 47 2 11 155
677 339 1480 184 803 337 1466 340 1473 3 9 39 12 130 12 69 0 125 -2 125 -3z
m2926 -2992 c39 -7 102 -24 140 -37 l69 -24 3 -103 3 -103 -28 20 c-57 40
-156 83 -236 102 -91 22 -229 26 -292 9 -112 -30 -184 -116 -171 -206 15 -114
72 -149 315 -193 187 -35 266 -59 334 -102 88 -56 127 -132 127 -249 0 -174
-123 -314 -321 -365 -85 -23 -286 -22 -393 1 -43 9 -116 30 -162 47 l-84 30 0
104 c0 57 3 104 8 104 4 0 28 -15 54 -33 184 -131 486 -168 633 -77 87 54 120
161 76 247 -31 62 -93 87 -307 128 -204 38 -268 59 -339 113 -133 101 -154
321 -42 447 127 146 332 192 613 140z"/>
</g>
</svg>
